<svg width="254" height="254" viewBox="0 0 254 254" fill="none" xmlns="http://www.w3.org/2000/svg">
<g clip-path="url(#clip0)">
<path d="M136.346 11.5153L169.942 79.588L245.065 90.504C253.614 91.7457 257.027 102.251 250.841 108.281L196.481 161.268L209.314 236.087C210.774 244.601 201.837 251.094 194.192 247.074L127 211.749L59.8078 247.074C52.1621 251.093 43.2255 244.601 44.686 236.087L57.5184 161.268L3.15862 108.281C-3.02715 102.251 0.386457 91.7462 8.93511 90.5035L84.0578 79.5875L117.654 11.5153C121.477 3.7688 132.522 3.7688 136.346 11.5153Z" fill="url(#paint0_linear)"/>
<path d="M169.941 79.588L136.346 11.5153C134.434 7.64228 130.717 5.70554 127 5.70554V134.585L169.941 79.588Z" fill="url(#paint1_linear)"/>
<path d="M196.481 161.268L250.84 108.28C253.892 105.306 254.604 101.243 253.519 97.74L126.999 134.584L196.481 161.268Z" fill="url(#paint2_linear)"/>
<path d="M205.198 246.256L126.999 134.584V211.749L194.191 247.074C198.028 249.091 202.189 248.46 205.198 246.256Z" fill="url(#paint3_linear)"/>
<path d="M126.999 134.584L57.5179 161.268L44.686 236.087C43.9582 240.329 45.8126 244.068 48.8006 246.256L126.999 134.584Z" fill="url(#paint4_linear)"/>
<path d="M0.480225 97.7405L127 134.584L84.0578 79.5875L8.93512 90.504C4.60374 91.1331 1.59445 94.1419 0.480225 97.7405Z" fill="url(#paint5_linear)"/>
<path d="M57.5184 161.268L3.15862 108.281C0.107155 105.306 -0.604737 101.244 0.480216 97.7405L127 134.584L57.5184 161.268Z" fill="url(#paint6_linear)"/>
</g>
<defs>
<linearGradient id="paint0_linear" x1="127.004" y1="33.997" x2="127.004" y2="314.257" gradientUnits="userSpaceOnUse">
<stop stop-color="#B8B8B8"/>
<stop offset="0.427" stop-color="#939393"/>
<stop offset="1" stop-color="#6F6F6F"/>
</linearGradient>
<linearGradient id="paint1_linear" x1="148.471" y1="20.7359" x2="148.471" y2="169.628" gradientUnits="userSpaceOnUse">
<stop stop-color="#B8B8B8"/>
<stop offset="0.427" stop-color="#939393"/>
<stop offset="1" stop-color="#6F6F6F"/>
</linearGradient>
<linearGradient id="paint2_linear" x1="190.5" y1="105.149" x2="190.5" y2="178.542" gradientUnits="userSpaceOnUse">
<stop stop-color="#B8B8B8"/>
<stop offset="0.427" stop-color="#939393"/>
<stop offset="1" stop-color="#6F6F6F"/>
</linearGradient>
<linearGradient id="paint3_linear" x1="166.1" y1="147.845" x2="166.1" y2="279.213" gradientUnits="userSpaceOnUse">
<stop stop-color="#B8B8B8"/>
<stop offset="0.427" stop-color="#939393"/>
<stop offset="1" stop-color="#6F6F6F"/>
</linearGradient>
<linearGradient id="paint4_linear" x1="85.7649" y1="147.608" x2="85.7649" y2="276.621" gradientUnits="userSpaceOnUse">
<stop stop-color="#B8B8B8"/>
<stop offset="0.427" stop-color="#939393"/>
<stop offset="1" stop-color="#6F6F6F"/>
</linearGradient>
<linearGradient id="paint5_linear" x1="63.7418" y1="86.0014" x2="63.7418" y2="149.538" gradientUnits="userSpaceOnUse">
<stop stop-color="#B8B8B8"/>
<stop offset="0.427" stop-color="#939393"/>
<stop offset="1" stop-color="#6F6F6F"/>
</linearGradient>
<linearGradient id="paint6_linear" x1="63.5031" y1="105.149" x2="63.5031" y2="178.542" gradientUnits="userSpaceOnUse">
<stop stop-color="#B8B8B8"/>
<stop offset="0.427" stop-color="#939393"/>
<stop offset="1" stop-color="#6F6F6F"/>
</linearGradient>
<clipPath id="clip0">
<rect width="254" height="254" fill="white"/>
</clipPath>
</defs>
</svg>
