<?xml version="1.0" encoding="iso-8859-1"?>
<!-- Generator: Adobe Illustrator 19.0.0, SVG Export Plug-In . SVG Version: 6.00 Build 0)  -->
<svg version="1.1" id="Capa_1" xmlns="http://www.w3.org/2000/svg" xmlns:xlink="http://www.w3.org/1999/xlink" x="0px" y="0px"
	 viewBox="0 0 511.999 511.999" style="enable-background:new 0 0 511.999 511.999;" xml:space="preserve">
<linearGradient id="SVGID_1_" gradientUnits="userSpaceOnUse" x1="0" y1="257.9997" x2="511.9994" y2="257.9997" gradientTransform="matrix(1 0 0 -1 0 513.9995)">
	<stop  offset="0" style="stop-color:#80D8FF"/>
	<stop  offset="0.16" style="stop-color:#88D1FF"/>
	<stop  offset="0.413" style="stop-color:#9FBEFE"/>
	<stop  offset="0.725" style="stop-color:#C4A0FD"/>
	<stop  offset="1" style="stop-color:#EA80FC"/>
</linearGradient>
<path style="fill:url(#SVGID_1_);" d="M370.917,496.377L256,436.074l-114.917,60.303c-13.574,7.123-29.708,5.947-42.105-3.07
	c-12.376-9.002-18.455-23.958-15.865-39.033l21.939-127.673l-92.94-90.425C1.136,225.497-2.747,209.818,1.978,195.258
	c4.73-14.575,17.097-24.997,32.273-27.198l128.472-18.633L220.17,33.243C226.954,19.523,240.683,11,256,11
	c15.316,0,29.045,8.523,35.829,22.243l0,0l57.448,116.184l128.472,18.633c15.176,2.201,27.543,12.623,32.273,27.198
	c4.725,14.561,0.842,30.239-10.134,40.918l-92.94,90.425l21.939,127.673c2.591,15.073-3.487,30.03-15.863,39.032
	C400.774,502.217,384.652,503.584,370.917,496.377z M40.127,207.626l100.365,97.648c4.724,4.596,6.881,11.226,5.764,17.722
	l-23.701,137.93l124.152-65.149c5.819-3.053,12.767-3.053,18.585,0l124.151,65.148l-23.7-137.93
	c-1.116-6.496,1.04-13.126,5.764-17.722l100.364-97.648l-138.736-20.122c-6.511-0.944-12.14-5.031-15.056-10.928l-62.08-125.551
	L193.92,176.576c-2.916,5.897-8.546,9.984-15.057,10.928L40.127,207.626z M472.146,207.674h0.01H472.146z M39.916,207.41
	L39.916,207.41L39.916,207.41z M472.084,207.41L472.084,207.41L472.084,207.41z M255.911,50.862L255.911,50.862L255.911,50.862z"/>
<g>
</g>
<g>
</g>
<g>
</g>
<g>
</g>
<g>
</g>
<g>
</g>
<g>
</g>
<g>
</g>
<g>
</g>
<g>
</g>
<g>
</g>
<g>
</g>
<g>
</g>
<g>
</g>
<g>
</g>
</svg>
